Coordinates
version=1
nRows=26
nColumns=18
inDegrees=yes

Units are S.I. units (second, meters, Newtons, ...)
Angles are in degrees.

endheader
time	ground_thorax_rot_x	ground_thorax_rot_y	ground_thorax_rot_z	ground_thorax_tx	ground_thorax_ty	ground_thorax_tz	clav_prot	clav_elev	scapula_abduction	scapula_elevation	scapula_upward_rot	scapula_winging	plane_elv	shoulder_elv	axial_rot	elbow_flexion	pro_sup
      0.00000000	      1.60352169	     -5.03623540	     -9.51324074	     -0.00423131	      0.00403036	     -0.00078352	    -18.31325453	     -6.72608562	     -7.21749400	     -4.33852956	      8.12426543	      6.93263604	    -21.17723920	     18.85649829	     44.80856664	      0.00000000	     34.32000000
      0.01000000	      1.79460806	     -5.04849231	     -9.57932490	     -0.00423131	      0.00403036	     -0.00078352	    -18.30828614	     -6.58429817	     -7.13538722	     -4.28241736	      8.31957492	      6.83582608	    -20.77263845	     19.07784353	     42.34986914	      0.00000000	     34.32000000
      0.02000000	      1.79124134	     -4.88709797	     -9.60969754	     -0.00423131	      0.00403036	     -0.00078352	    -18.42469626	     -6.65464290	     -7.33637139	     -4.33692211	      8.29599728	      6.88654724	    -20.59676537	     19.50625280	     37.07413035	      0.00000000	     34.32000000
      0.03000000	      1.74574367	     -4.90606780	     -9.52778125	     -0.00423131	      0.00403036	     -0.00078352	    -18.41915138	     -6.63839182	     -7.32700942	     -4.32558908	      8.30179860	      6.87851563	    -20.99582646	     19.48438404	     37.54317246	      0.00000000	     34.32000000
      0.04000000	      1.73800463	     -4.80366449	     -9.51300891	     -0.00423131	      0.00403036	     -0.00078352	    -18.53269438	     -6.56897640	     -7.50320442	     -4.29685138	      8.37032816	      6.85729018	    -21.58059304	     18.76874178	     45.05741434	      0.00000000	     34.32000000
      0.05000000	      1.76747261	     -4.82447812	     -9.52240002	     -0.00423131	      0.00403036	     -0.00078352	    -18.53368967	     -6.58063491	     -7.50007254	     -4.30738311	      8.37530553	      6.86089144	    -21.57374585	     18.76219108	     45.06331546	      0.00000000	     34.32000000
      0.06000000	      1.82678143	     -4.90000256	     -9.56312815	     -0.00423131	      0.00403036	     -0.00078352	    -18.49554467	     -6.53342414	     -7.36201308	     -4.31138587	      8.52913065	      6.80084976	    -21.85572090	     18.50443281	     47.55059966	      0.00000000	     34.32000000
      0.07000000	      1.52674975	     -4.97040911	     -9.57532264	     -0.00423131	      0.00403036	     -0.00078352	    -18.36518750	     -6.94407380	     -7.30656632	     -4.48840658	      8.04258455	      7.03794224	    -21.08344780	     19.36901506	     40.32935139	      0.00000000	     34.32000000
      0.08000000	      1.71410200	     -4.95806751	     -9.63070925	     -0.00423131	      0.00403036	     -0.00078352	    -18.42697545	     -6.77049793	     -7.34559434	     -4.41190342	      8.24089141	      6.94056769	    -20.72025763	     19.37052356	     39.39549930	      0.00000000	     34.32000000
      0.09000000	      1.67492525	     -4.99113383	     -9.59693699	     -0.00423131	      0.00403036	     -0.00078352	    -18.40490161	     -6.76616099	     -7.27109426	     -4.42679554	      8.31080348	      6.91827657	    -21.29804415	     19.18075492	     40.58407577	      0.00000000	     34.32000000
      0.10000000	      1.69592058	     -5.00748258	     -9.59356660	     -0.00423131	      0.00403036	     -0.00078352	    -18.38009012	     -6.76738276	     -7.26111433	     -4.40865203	      8.24715657	      6.92964184	    -20.98504152	     19.41756925	     38.84341442	      0.00000000	     34.32000000
      0.11000000	      1.68975225	     -4.92461970	     -9.60862673	     -0.00423131	      0.00403036	     -0.00078352	    -18.47035650	     -6.77652891	     -7.41814334	     -4.41994124	      8.24439933	      6.94946096	    -20.91291090	     19.46724644	     38.03771192	      0.00000000	     34.32000000
      0.12000000	      1.84042684	     -4.72298878	     -9.65653232	     -0.00423131	      0.00403036	     -0.00078352	    -18.75382820	     -6.62057803	     -7.83579731	     -4.37162893	      8.45090513	      6.89373034	    -20.56252523	     19.39336825	     36.75472237	      0.00000000	     34.32000000
      0.13000000	      1.83740825	     -4.69536536	     -9.67726080	     -0.00423131	      0.00403036	     -0.00078352	    -18.71181916	     -6.64144953	     -7.78301377	     -4.37248704	      8.40399505	      6.90544710	    -20.52318057	     19.41962878	     36.81922488	      0.00000000	     34.32000000
      0.14000000	      1.81096241	     -4.90224317	     -9.55967393	     -0.00423131	      0.00403036	     -0.00078352	    -18.51865485	     -6.53928129	     -7.41361388	     -4.31068706	      8.50564019	      6.81271917	    -21.77671622	     18.48905376	     47.71510116	      0.00000000	     34.32000000
      0.15000000	      1.78123271	     -5.00489056	     -9.53561505	     -0.00423131	      0.00403036	     -0.00078352	    -18.41946116	     -6.53127301	     -7.26536056	     -4.28683315	      8.46180974	      6.80339293	    -21.78310879	     18.51725597	     47.49283548	      0.00000000	     34.32000000
      0.16000000	      1.84875750	     -4.95268282	     -9.56064389	     -0.00423131	      0.00403036	     -0.00078352	    -18.48575837	     -6.49831709	     -7.37737582	     -4.27035458	      8.48170925	      6.79866649	    -21.48815795	     18.58981459	     46.78796311	      0.00000000	     34.32000000
      0.17000000	      1.74974911	     -4.67793059	     -9.61334925	     -0.00423131	      0.00403036	     -0.00078352	    -18.72702541	     -6.72492143	     -7.92082635	     -4.37019123	      8.15968257	      6.99552884	    -20.41300895	     19.43352679	     38.51872568	      0.00000000	     34.32000000
      0.18000000	      1.81234845	     -4.88037885	     -9.56773283	     -0.00423131	      0.00403036	     -0.00078352	    -18.56344134	     -6.53891029	     -7.49289418	     -4.31224965	      8.50354994	      6.82066171	    -21.75577350	     18.47073449	     47.58748871	      0.00000000	     34.32000000
      0.19000000	      1.80094230	     -4.96312916	     -9.62409401	     -0.00423131	      0.00403036	     -0.00078352	    -18.46759894	     -6.66423183	     -7.42892665	     -4.33612281	      8.25812595	      6.90603727	    -20.66463244	     19.18355099	     41.34380872	      0.00000000	     34.32000000
      0.20000000	      1.77001447	     -4.99311816	     -9.62202324	     -0.00423131	      0.00403036	     -0.00078352	    -18.47449253	     -6.66096041	     -7.43461967	     -4.33784550	      8.27192804	      6.90321788	    -20.66528140	     19.17843552	     41.35850529	      0.00000000	     34.32000000
      0.21000000	      1.84439219	     -5.05999885	     -9.59336447	     -0.00423131	      0.00403036	     -0.00078352	    -18.40776321	     -6.55107179	     -7.20365543	     -4.32118070	      8.53205840	      6.79086814	    -21.26518032	     18.95842224	     41.98894576	      0.00000000	     34.32000000
      0.22000000	      1.72361366	     -4.89078140	     -9.55999808	     -0.00423131	      0.00403036	     -0.00078352	    -18.54096292	     -6.62706472	     -7.51409339	     -4.33813149	      8.35451509	      6.88319457	    -21.59480033	     18.81693160	     44.14051774	      0.00000000	     34.32000000
      0.23000000	      1.63563601	     -4.92161657	     -9.57907412	     -0.00423131	      0.00403036	     -0.00078352	    -18.49913045	     -6.75639176	     -7.48484900	     -4.39919020	      8.22065412	      6.95298427	    -21.34739339	     19.04036810	     42.13274568	      0.00000000	     34.32000000
      0.24000000	      1.64767888	     -4.80503377	     -9.73972664	     -0.00423131	      0.00403036	     -0.00078352	    -18.64715719	     -6.87331850	     -7.75406529	     -4.47989127	      8.15413909	      7.03564216	    -20.41748181	     19.54175506	     36.26273331	      0.00000000	     34.32000000
      0.25000000	      1.64935279	     -4.97107161	     -9.56501412	     -0.00423131	      0.00403036	     -0.00078352	    -18.44549582	     -6.75373012	     -7.38306589	     -4.39886125	      8.23741983	      6.93863261	    -21.16182025	     19.32251227	     39.05540344	      0.00000000	     34.32000000
